<svg width="200" height="200" xmlns="http://www.w3.org/2000/svg">
  <defs>
    <linearGradient id="sunGradient" x1="0%" y1="0%" x2="100%" y2="100%">
      <stop offset="0%" stop-color="#FFD700" />
      <stop offset="100%" stop-color="#FFA500" />
    </linearGradient>
    <linearGradient id="rayGradient" x1="0%" y1="0%" x2="100%" y2="100%">
      <stop offset="0%" stop-color="#FFB347" />
      <stop offset="100%" stop-color="#FFCC33" />
    </linearGradient>
  </defs>
  
  <!-- Sun rays -->
  <g fill="url(#rayGradient)">
    <rect x="95" y="0" width="10" height="30" rx="5" />
    <rect x="95" y="170" width="10" height="30" rx="5" />
    <rect x="0" y="95" width="30" height="10" rx="5" />
    <rect x="170" y="95" width="30" height="10" rx="5" />
    
    <rect x="35" y="35" width="10" height="30" rx="5" transform="rotate(-45 40 40)" />
    <rect x="155" y="155" width="10" height="30" rx="5" transform="rotate(-45 160 160)" />
    <rect x="35" y="155" width="10" height="30" rx="5" transform="rotate(45 40 160)" />
    <rect x="155" y="35" width="10" height="30" rx="5" transform="rotate(45 160 40)" />
  </g>
  
  <!-- Main sun circle -->
  <circle cx="100" cy="100" r="50" fill="url(#sunGradient)" stroke="#FF8C00" stroke-width="3" />
  
  <!-- Smiley face -->
  <circle cx="85" cy="85" r="5" fill="#333" />
  <circle cx="115" cy="85" r="5" fill="#333" />
  <path d="M80 115 Q100 130 120 115" stroke="#333" stroke-width="3" fill="none" stroke-linecap="round" />
  
  <!-- App name text -->
  <text x="100" y="175" text-anchor="middle" font-family="Arial, sans-serif" font-size="20" font-weight="bold" fill="#333">Sunshine</text>
</svg>